<svg width="76" height="25" viewBox="0 0 76 25" fill="none" xmlns="http://www.w3.org/2000/svg">
<path d="M0 4.98074V24.1068H2.74564V10.2572H2.92307L8.56377 24.0788H10.8425L16.4832 10.2666H16.6606V24.1068H19.4062V4.98074H15.9041L9.81518 19.8483H9.59104L3.50209 4.98074H0Z" fill="white"/>
<path d="M30.0479 24.3963C33.1764 24.3963 35.3897 22.8554 36.0248 20.5207L33.3819 20.0444C32.8776 21.3985 31.6635 22.0896 30.0759 22.0896C27.6852 22.0896 26.0789 20.5393 26.0042 17.775H36.2022V16.7851C36.2022 11.602 33.1017 9.57548 29.8518 9.57548C25.8547 9.57548 23.2212 12.62 23.2212 17.0279C23.2212 21.4826 25.8174 24.3963 30.0479 24.3963ZM26.0135 15.6831C26.1256 13.6472 27.6011 11.8822 29.8705 11.8822C32.0371 11.8822 33.4566 13.4885 33.4659 15.6831H26.0135Z" fill="white"/>
<path d="M50.0495 13.2643C49.4705 11.0323 47.7241 9.57548 44.6236 9.57548C41.383 9.57548 39.0856 11.2845 39.0856 13.8247C39.0856 15.8606 40.3183 17.2147 43.0079 17.8124L45.4361 18.3447C46.8182 18.6529 47.4626 19.2693 47.4626 20.1658C47.4626 21.2771 46.2766 22.1456 44.4461 22.1456C42.7745 22.1456 41.7005 21.4265 41.3643 20.0164L38.6654 20.4273C39.1323 22.9675 41.2429 24.3963 44.4648 24.3963C47.9295 24.3963 50.3296 22.5565 50.3296 19.9603C50.3296 17.9338 49.0409 16.6824 46.4073 16.0753L44.1286 15.5524C42.5503 15.1788 41.8686 14.6465 41.8779 13.6753C41.8686 12.5733 43.064 11.7888 44.6516 11.7888C46.3886 11.7888 47.1918 12.7507 47.5186 13.7126L50.0495 13.2643Z" fill="white"/>
<path d="M60.0958 9.76226H57.154V6.32554H54.3617V9.76226H52.2605V12.0036H54.3617V20.474C54.3524 23.0795 56.3416 24.3403 58.5455 24.2936C59.4327 24.2842 60.0304 24.1161 60.3573 23.9947L59.853 21.688C59.6662 21.7254 59.3207 21.8094 58.8724 21.8094C57.9665 21.8094 57.154 21.5106 57.154 19.895V12.0036H60.0958V9.76226Z" fill="white"/>
<path d="M69.0728 24.3963C73.1165 24.3963 75.7594 21.4359 75.7594 16.9999C75.7594 12.5359 73.1165 9.57548 69.0728 9.57548C65.0291 9.57548 62.3862 12.5359 62.3862 16.9999C62.3862 21.4359 65.0291 24.3963 69.0728 24.3963ZM69.0821 22.0522C66.4392 22.0522 65.2065 19.7455 65.2065 16.9906C65.2065 14.2449 66.4392 11.9102 69.0821 11.9102C71.7064 11.9102 72.9391 14.2449 72.9391 16.9906C72.9391 19.7455 71.7064 22.0522 69.0821 22.0522Z" fill="white"/>
</svg>
