<svg width="20" height="20" xmlns="http://www.w3.org/2000/svg">

 <g>
  <title>background</title>
  <rect fill="none" id="canvas_background" height="22" width="22" y="-1" x="-1"/>
 </g>
 <g>
  <title>Layer 1</title>
  <path id="svg_1" fill="#fff" d="m3.45787,18.235c0.06095,0.66 0.60948,1.14 1.27991,1.14l10.52372,0c0.6704,0 1.2189,-0.5 1.2799,-1.14l1.1783,-12.16005l-15.44016,0l1.17833,12.16005z"/>
  <path id="svg_2" fill="#fff" d="m17.7201,2.275l-5.14,0l0,-0.64c0,-0.7 -0.5688,-1.26 -1.2799,-1.26l-2.58011,0c-0.71106,0 -1.27991,0.56 -1.27991,1.26l0,0.64l-5.16027,0c-0.71106,0 -1.27991,0.56 -1.27991,1.26c0,0.70001 0.56885,1.26001 1.27991,1.26001l15.44019,0c0.7111,0 1.2799,-0.56 1.2799,-1.26001c0,-0.7 -0.5688,-1.26 -1.2799,-1.26z"/>
 </g>
</svg>
