<svg width="20" height="20" xmlns="http://www.w3.org/2000/svg">

 <g>
  <title>background</title>
  <rect fill="none" id="canvas_background" height="22" width="22" y="-1" x="-1"/>
 </g>
 <g>
  <title>Layer 1</title>
  <path stroke="null" id="svg_1" fill="black" d="m18.390096,10.313478c2.054618,-2.323877 2.054618,-6.097296 0,-8.398156c-2.054709,-2.323877 -5.390892,-2.323877 -7.445601,0l-0.996733,1.150436l-0.996851,-1.12743c-2.054636,-2.346883 -5.390892,-2.346883 -7.42519,-0.023006c-0.996805,1.127419 -1.525721,2.622983 -1.525721,4.210581c0,1.587598 0.549263,3.083162 1.525721,4.210581l8.422041,9.525586l8.442334,-9.548592zm-17.088146,-4.187575c0,-1.196447 0.406865,-2.300861 1.159551,-3.129173c0.773034,-0.874335 1.76984,-1.311497 2.766645,-1.311497c0.996805,0 1.993611,0.437162 2.766645,1.311497l1.95297,2.185821l1.952879,-2.208837c1.525721,-1.725643 4.027881,-1.725643 5.533309,0c0.732375,0.828313 1.159533,1.932737 1.159533,3.129184c0,1.196447 -0.406865,2.300861 -1.159533,3.129173l-7.486188,8.490149l-7.48626,-8.467143c-0.732348,-0.851319 -1.159551,-1.955732 -1.159551,-3.129173z"/>
 </g>
</svg>