<svg width="78" height="20" xmlns="http://www.w3.org/2000/svg">

 <g>
  <title>background</title>
  <rect fill="none" id="canvas_background" height="22" width="78" y="-1" x="-1"/>
 </g>
 <g>
  <title>Layer 1</title>
  <path id="svg_1" fill="#fff" d="m0,0.536295l0,19.12606l2.74564,0l0,-13.8496l0.17743,0l5.6407,13.8216l2.27873,0l5.6407,-13.8122l0.1774,0l0,13.8402l2.7456,0l0,-19.12606l-3.5021,0l-6.08892,14.86756l-0.22414,0l-6.08895,-14.86756l-3.50209,0z"/>
  <path id="svg_2" fill="#fff" d="m30.0479,19.793125c3.1285,0 5.3418,-1.5409 5.9769,-3.8756l-2.6429,-0.4763c-0.5043,1.3541 -1.7184,2.0452 -3.306,2.0452c-2.3907,0 -3.997,-1.5503 -4.0717,-4.3146l10.198,0l0,-0.9899c0,-5.1831 -3.1005,-7.20962 -6.3504,-7.20962c-3.9971,0 -6.6306,3.04452 -6.6306,7.45242c0,4.4547 2.5962,7.3684 6.8267,7.3684zm-4.0344,-8.7132c0.1121,-2.0359 1.5876,-3.8009 3.857,-3.8009c2.1666,0 3.5861,1.6063 3.5954,3.8009l-7.4524,0z"/>
  <path id="svg_3" fill="#fff" d="m50.0495,8.661125c-0.579,-2.232 -2.3254,-3.68882 -5.4259,-3.68882c-3.2406,0 -5.538,1.70902 -5.538,4.24922c0,2.0359 1.2327,3.39 3.9223,3.9877l2.4282,0.5323c1.3821,0.3082 2.0265,0.9246 2.0265,1.8211c0,1.1113 -1.186,1.9798 -3.0165,1.9798c-1.6716,0 -2.7456,-0.7191 -3.0818,-2.1292l-2.6989,0.4109c0.4669,2.5402 2.5775,3.969 5.7994,3.969c3.4647,0 5.8648,-1.8398 5.8648,-4.436c0,-2.0265 -1.2887,-3.2779 -3.9223,-3.885l-2.2787,-0.5229c-1.5783,-0.3736 -2.26,-0.9059 -2.2507,-1.8771c-0.0093,-1.102 1.1861,-1.8865 2.7737,-1.8865c1.737,0 2.5402,0.9619 2.867,1.9238l2.5309,-0.4483z"/>
  <path id="svg_4" fill="#fff" d="m60.0958,5.159085l-2.9418,0l0,-3.43672l-2.7923,0l0,3.43672l-2.1012,0l0,2.24134l2.1012,0l0,8.4704c-0.0093,2.6055 1.9799,3.8663 4.1838,3.8196c0.8872,-0.0094 1.4849,-0.1775 1.8118,-0.2989l-0.5043,-2.3067c-0.1868,0.0374 -0.5323,0.1214 -0.9806,0.1214c-0.9059,0 -1.7184,-0.2988 -1.7184,-1.9144l0,-7.8914l2.9418,0l0,-2.24134z"/>
  <path id="svg_5" fill="#fff" d="m69.0728,19.793125c4.0437,0 6.6866,-2.9604 6.6866,-7.3964c0,-4.464 -2.6429,-7.42442 -6.6866,-7.42442c-4.0437,0 -6.6866,2.96042 -6.6866,7.42442c0,4.436 2.6429,7.3964 6.6866,7.3964zm0.0093,-2.3441c-2.6429,0 -3.8756,-2.3067 -3.8756,-5.0616c0,-2.7457 1.2327,-5.0804 3.8756,-5.0804c2.6243,0 3.857,2.3347 3.857,5.0804c0,2.7549 -1.2327,5.0616 -3.857,5.0616z"/>
 </g>
</svg>
